<svg width="82" height="59" viewBox="0 0 82 59" fill="none" xmlns="http://www.w3.org/2000/svg">
<g clip-path="url(#clip0_964:17557)">
<g clip-path="url(#clip1_964:17557)">
<path d="M-0.5 0.995234H12.1121V35.0099C12.1121 40.4046 14.5437 43.6154 16.5215 44.9519C14.4627 46.761 8.22148 48.3582 3.52031 44.4955C0.764453 42.2137 -0.5 38.4162 -0.5 34.8795V0.995234ZM78.2689 29.2729V25.6872H82.1272V13.1701H77.8961C76.2588 5.62396 69.5961 0.017334 61.6365 0.017334C52.4611 0.017334 44.9879 7.51457 44.9879 16.7557V45.9624C47.5816 46.3372 50.7266 45.9135 53.3689 43.6806C56.141 41.3988 57.3893 37.6176 57.3893 34.0646V32.9726H63.6791V20.4555H57.3893V16.6579C57.3893 11.0187 65.8514 11.0187 65.8514 16.6579V29.224C65.8514 38.4488 73.3084 45.9624 82.5 45.9624V33.4941C80.1494 33.4941 78.2689 31.5872 78.2689 29.2729ZM30.5602 13.1375V31.5546C30.5602 34.0646 26.702 34.0646 26.702 31.5546V13.1375H14.252V34.7654C14.252 38.6444 15.5488 43.5665 21.5469 45.18C27.5449 46.7773 30.9816 43.4524 30.9816 43.4524C30.6412 45.6364 28.6311 47.2499 25.324 47.5759C22.8113 47.8367 19.6178 46.9892 18.0291 46.3046V57.7624C22.098 58.9847 26.3777 59.3596 30.6088 58.5284C38.2441 57.0452 43.0588 50.64 43.0588 42.0996V13.056H30.5602V13.1375Z" fill="#737373"/>
</g>
</g>
<defs>
<clipPath id="clip0_964:17557">
<rect width="82" height="59" fill="white"/>
</clipPath>
<clipPath id="clip1_964:17557">
<rect width="83" height="59" fill="white" transform="translate(-0.5)"/>
</clipPath>
</defs>
</svg>
